<?xml version="1.0" encoding="utf-8" standalone="no"?>
<!DOCTYPE svg PUBLIC "-//W3C//DTD SVG 1.1//EN"
  "http://www.w3.org/Graphics/SVG/1.1/DTD/svg11.dtd">
<svg xmlns:xlink="http://www.w3.org/1999/xlink" width="814.79952pt" height="310.790592pt" viewBox="0 0 814.79952 310.790592" xmlns="http://www.w3.org/2000/svg" version="1.1">
 <metadata>
  <rdf:RDF xmlns:dc="http://purl.org/dc/elements/1.1/" xmlns:cc="http://creativecommons.org/ns#" xmlns:rdf="http://www.w3.org/1999/02/22-rdf-syntax-ns#">
   <cc:Work>
    <dc:type rdf:resource="http://purl.org/dc/dcmitype/StillImage"/>
    <dc:date>2024-04-17T13:59:08.359470</dc:date>
    <dc:format>image/svg+xml</dc:format>
    <dc:creator>
     <cc:Agent>
      <dc:title>Matplotlib v3.8.4, https://matplotlib.org/</dc:title>
     </cc:Agent>
    </dc:creator>
   </cc:Work>
  </rdf:RDF>
 </metadata>
 <defs>
  <style type="text/css">*{stroke-linejoin: round; stroke-linecap: butt}</style>
 </defs>
 <g id="figure_1">
  <g id="patch_1">
   <path d="M 0 310.790592 
L 814.79952 310.790592 
L 814.79952 0 
L 0 0 
z
" style="fill: #ffffff"/>
  </g>
  <g id="axes_1">
   <g id="patch_2">
    <path d="M 48.8975 269.363092 
L 807.59952 269.363092 
L 807.59952 36.177795 
L 48.8975 36.177795 
z
" style="fill: #ffffff"/>
   </g>
   <g id="matplotlib.axis_1">
    <g id="xtick_1">
     <g id="line2d_1">
      <path d="M 48.8975 269.363092 
L 48.8975 36.177795 
" clip-path="url(#pbed756318d)" style="fill: none; stroke: #b0b0b0; stroke-opacity: 0.4; stroke-width: 0.8; stroke-linecap: square"/>
     </g>
     <g id="line2d_2">
      <defs>
       <path id="m4cdbc2411c" d="M 0 0 
L 0 3.5 
" style="stroke: #000000; stroke-width: 0.8"/>
      </defs>
      <g>
       <use xlink:href="#m4cdbc2411c" x="48.8975" y="269.363092" style="stroke: #000000; stroke-width: 0.8"/>
      </g>
     </g>
     <g id="text_1">
      <!-- 0 -->
      <g transform="translate(45.08 285.481217) scale(0.12 -0.12)">
       <defs>
        <path id="DejaVuSans-30" d="M 2034 4250 
Q 1547 4250 1301 3770 
Q 1056 3291 1056 2328 
Q 1056 1369 1301 889 
Q 1547 409 2034 409 
Q 2525 409 2770 889 
Q 3016 1369 3016 2328 
Q 3016 3291 2770 3770 
Q 2525 4250 2034 4250 
z
M 2034 4750 
Q 2819 4750 3233 4129 
Q 3647 3509 3647 2328 
Q 3647 1150 3233 529 
Q 2819 -91 2034 -91 
Q 1250 -91 836 529 
Q 422 1150 422 2328 
Q 422 3509 836 4129 
Q 1250 4750 2034 4750 
z
" transform="scale(0.015625)"/>
       </defs>
       <use xlink:href="#DejaVuSans-30"/>
      </g>
     </g>
    </g>
    <g id="xtick_2">
     <g id="line2d_3">
      <path d="M 150.057769 269.363092 
L 150.057769 36.177795 
" clip-path="url(#pbed756318d)" style="fill: none; stroke: #b0b0b0; stroke-opacity: 0.4; stroke-width: 0.8; stroke-linecap: square"/>
     </g>
     <g id="line2d_4">
      <g>
       <use xlink:href="#m4cdbc2411c" x="150.057769" y="269.363092" style="stroke: #000000; stroke-width: 0.8"/>
      </g>
     </g>
     <g id="text_2">
      <!-- 20 -->
      <g transform="translate(142.422769 285.481217) scale(0.12 -0.12)">
       <defs>
        <path id="DejaVuSans-32" d="M 1228 531 
L 3431 531 
L 3431 0 
L 469 0 
L 469 531 
Q 828 903 1448 1529 
Q 2069 2156 2228 2338 
Q 2531 2678 2651 2914 
Q 2772 3150 2772 3378 
Q 2772 3750 2511 3984 
Q 2250 4219 1831 4219 
Q 1534 4219 1204 4116 
Q 875 4013 500 3803 
L 500 4441 
Q 881 4594 1212 4672 
Q 1544 4750 1819 4750 
Q 2544 4750 2975 4387 
Q 3406 4025 3406 3419 
Q 3406 3131 3298 2873 
Q 3191 2616 2906 2266 
Q 2828 2175 2409 1742 
Q 1991 1309 1228 531 
z
" transform="scale(0.015625)"/>
       </defs>
       <use xlink:href="#DejaVuSans-32"/>
       <use xlink:href="#DejaVuSans-30" x="63.623047"/>
      </g>
     </g>
    </g>
    <g id="xtick_3">
     <g id="line2d_5">
      <path d="M 251.218039 269.363092 
L 251.218039 36.177795 
" clip-path="url(#pbed756318d)" style="fill: none; stroke: #b0b0b0; stroke-opacity: 0.4; stroke-width: 0.8; stroke-linecap: square"/>
     </g>
     <g id="line2d_6">
      <g>
       <use xlink:href="#m4cdbc2411c" x="251.218039" y="269.363092" style="stroke: #000000; stroke-width: 0.8"/>
      </g>
     </g>
     <g id="text_3">
      <!-- 40 -->
      <g transform="translate(243.583039 285.481217) scale(0.12 -0.12)">
       <defs>
        <path id="DejaVuSans-34" d="M 2419 4116 
L 825 1625 
L 2419 1625 
L 2419 4116 
z
M 2253 4666 
L 3047 4666 
L 3047 1625 
L 3713 1625 
L 3713 1100 
L 3047 1100 
L 3047 0 
L 2419 0 
L 2419 1100 
L 313 1100 
L 313 1709 
L 2253 4666 
z
" transform="scale(0.015625)"/>
       </defs>
       <use xlink:href="#DejaVuSans-34"/>
       <use xlink:href="#DejaVuSans-30" x="63.623047"/>
      </g>
     </g>
    </g>
    <g id="xtick_4">
     <g id="line2d_7">
      <path d="M 352.378308 269.363092 
L 352.378308 36.177795 
" clip-path="url(#pbed756318d)" style="fill: none; stroke: #b0b0b0; stroke-opacity: 0.4; stroke-width: 0.8; stroke-linecap: square"/>
     </g>
     <g id="line2d_8">
      <g>
       <use xlink:href="#m4cdbc2411c" x="352.378308" y="269.363092" style="stroke: #000000; stroke-width: 0.8"/>
      </g>
     </g>
     <g id="text_4">
      <!-- 60 -->
      <g transform="translate(344.743308 285.481217) scale(0.12 -0.12)">
       <defs>
        <path id="DejaVuSans-36" d="M 2113 2584 
Q 1688 2584 1439 2293 
Q 1191 2003 1191 1497 
Q 1191 994 1439 701 
Q 1688 409 2113 409 
Q 2538 409 2786 701 
Q 3034 994 3034 1497 
Q 3034 2003 2786 2293 
Q 2538 2584 2113 2584 
z
M 3366 4563 
L 3366 3988 
Q 3128 4100 2886 4159 
Q 2644 4219 2406 4219 
Q 1781 4219 1451 3797 
Q 1122 3375 1075 2522 
Q 1259 2794 1537 2939 
Q 1816 3084 2150 3084 
Q 2853 3084 3261 2657 
Q 3669 2231 3669 1497 
Q 3669 778 3244 343 
Q 2819 -91 2113 -91 
Q 1303 -91 875 529 
Q 447 1150 447 2328 
Q 447 3434 972 4092 
Q 1497 4750 2381 4750 
Q 2619 4750 2861 4703 
Q 3103 4656 3366 4563 
z
" transform="scale(0.015625)"/>
       </defs>
       <use xlink:href="#DejaVuSans-36"/>
       <use xlink:href="#DejaVuSans-30" x="63.623047"/>
      </g>
     </g>
    </g>
    <g id="xtick_5">
     <g id="line2d_9">
      <path d="M 453.538577 269.363092 
L 453.538577 36.177795 
" clip-path="url(#pbed756318d)" style="fill: none; stroke: #b0b0b0; stroke-opacity: 0.4; stroke-width: 0.8; stroke-linecap: square"/>
     </g>
     <g id="line2d_10">
      <g>
       <use xlink:href="#m4cdbc2411c" x="453.538577" y="269.363092" style="stroke: #000000; stroke-width: 0.8"/>
      </g>
     </g>
     <g id="text_5">
      <!-- 80 -->
      <g transform="translate(445.903577 285.481217) scale(0.12 -0.12)">
       <defs>
        <path id="DejaVuSans-38" d="M 2034 2216 
Q 1584 2216 1326 1975 
Q 1069 1734 1069 1313 
Q 1069 891 1326 650 
Q 1584 409 2034 409 
Q 2484 409 2743 651 
Q 3003 894 3003 1313 
Q 3003 1734 2745 1975 
Q 2488 2216 2034 2216 
z
M 1403 2484 
Q 997 2584 770 2862 
Q 544 3141 544 3541 
Q 544 4100 942 4425 
Q 1341 4750 2034 4750 
Q 2731 4750 3128 4425 
Q 3525 4100 3525 3541 
Q 3525 3141 3298 2862 
Q 3072 2584 2669 2484 
Q 3125 2378 3379 2068 
Q 3634 1759 3634 1313 
Q 3634 634 3220 271 
Q 2806 -91 2034 -91 
Q 1263 -91 848 271 
Q 434 634 434 1313 
Q 434 1759 690 2068 
Q 947 2378 1403 2484 
z
M 1172 3481 
Q 1172 3119 1398 2916 
Q 1625 2713 2034 2713 
Q 2441 2713 2670 2916 
Q 2900 3119 2900 3481 
Q 2900 3844 2670 4047 
Q 2441 4250 2034 4250 
Q 1625 4250 1398 4047 
Q 1172 3844 1172 3481 
z
" transform="scale(0.015625)"/>
       </defs>
       <use xlink:href="#DejaVuSans-38"/>
       <use xlink:href="#DejaVuSans-30" x="63.623047"/>
      </g>
     </g>
    </g>
    <g id="xtick_6">
     <g id="line2d_11">
      <path d="M 554.698847 269.363092 
L 554.698847 36.177795 
" clip-path="url(#pbed756318d)" style="fill: none; stroke: #b0b0b0; stroke-opacity: 0.4; stroke-width: 0.8; stroke-linecap: square"/>
     </g>
     <g id="line2d_12">
      <g>
       <use xlink:href="#m4cdbc2411c" x="554.698847" y="269.363092" style="stroke: #000000; stroke-width: 0.8"/>
      </g>
     </g>
     <g id="text_6">
      <!-- 100 -->
      <g transform="translate(543.246347 285.481217) scale(0.12 -0.12)">
       <defs>
        <path id="DejaVuSans-31" d="M 794 531 
L 1825 531 
L 1825 4091 
L 703 3866 
L 703 4441 
L 1819 4666 
L 2450 4666 
L 2450 531 
L 3481 531 
L 3481 0 
L 794 0 
L 794 531 
z
" transform="scale(0.015625)"/>
       </defs>
       <use xlink:href="#DejaVuSans-31"/>
       <use xlink:href="#DejaVuSans-30" x="63.623047"/>
       <use xlink:href="#DejaVuSans-30" x="127.246094"/>
      </g>
     </g>
    </g>
    <g id="xtick_7">
     <g id="line2d_13">
      <path d="M 655.859116 269.363092 
L 655.859116 36.177795 
" clip-path="url(#pbed756318d)" style="fill: none; stroke: #b0b0b0; stroke-opacity: 0.4; stroke-width: 0.8; stroke-linecap: square"/>
     </g>
     <g id="line2d_14">
      <g>
       <use xlink:href="#m4cdbc2411c" x="655.859116" y="269.363092" style="stroke: #000000; stroke-width: 0.8"/>
      </g>
     </g>
     <g id="text_7">
      <!-- 120 -->
      <g transform="translate(644.406616 285.481217) scale(0.12 -0.12)">
       <use xlink:href="#DejaVuSans-31"/>
       <use xlink:href="#DejaVuSans-32" x="63.623047"/>
       <use xlink:href="#DejaVuSans-30" x="127.246094"/>
      </g>
     </g>
    </g>
    <g id="xtick_8">
     <g id="line2d_15">
      <path d="M 757.019385 269.363092 
L 757.019385 36.177795 
" clip-path="url(#pbed756318d)" style="fill: none; stroke: #b0b0b0; stroke-opacity: 0.4; stroke-width: 0.8; stroke-linecap: square"/>
     </g>
     <g id="line2d_16">
      <g>
       <use xlink:href="#m4cdbc2411c" x="757.019385" y="269.363092" style="stroke: #000000; stroke-width: 0.8"/>
      </g>
     </g>
     <g id="text_8">
      <!-- 140 -->
      <g transform="translate(745.566885 285.481217) scale(0.12 -0.12)">
       <use xlink:href="#DejaVuSans-31"/>
       <use xlink:href="#DejaVuSans-34" x="63.623047"/>
       <use xlink:href="#DejaVuSans-30" x="127.246094"/>
      </g>
     </g>
    </g>
    <g id="text_9">
     <!-- Forecasting Length -->
     <g transform="translate(370.985072 301.094967) scale(0.12 -0.12)">
      <defs>
       <path id="DejaVuSans-46" d="M 628 4666 
L 3309 4666 
L 3309 4134 
L 1259 4134 
L 1259 2759 
L 3109 2759 
L 3109 2228 
L 1259 2228 
L 1259 0 
L 628 0 
L 628 4666 
z
" transform="scale(0.015625)"/>
       <path id="DejaVuSans-6f" d="M 1959 3097 
Q 1497 3097 1228 2736 
Q 959 2375 959 1747 
Q 959 1119 1226 758 
Q 1494 397 1959 397 
Q 2419 397 2687 759 
Q 2956 1122 2956 1747 
Q 2956 2369 2687 2733 
Q 2419 3097 1959 3097 
z
M 1959 3584 
Q 2709 3584 3137 3096 
Q 3566 2609 3566 1747 
Q 3566 888 3137 398 
Q 2709 -91 1959 -91 
Q 1206 -91 779 398 
Q 353 888 353 1747 
Q 353 2609 779 3096 
Q 1206 3584 1959 3584 
z
" transform="scale(0.015625)"/>
       <path id="DejaVuSans-72" d="M 2631 2963 
Q 2534 3019 2420 3045 
Q 2306 3072 2169 3072 
Q 1681 3072 1420 2755 
Q 1159 2438 1159 1844 
L 1159 0 
L 581 0 
L 581 3500 
L 1159 3500 
L 1159 2956 
Q 1341 3275 1631 3429 
Q 1922 3584 2338 3584 
Q 2397 3584 2469 3576 
Q 2541 3569 2628 3553 
L 2631 2963 
z
" transform="scale(0.015625)"/>
       <path id="DejaVuSans-65" d="M 3597 1894 
L 3597 1613 
L 953 1613 
Q 991 1019 1311 708 
Q 1631 397 2203 397 
Q 2534 397 2845 478 
Q 3156 559 3463 722 
L 3463 178 
Q 3153 47 2828 -22 
Q 2503 -91 2169 -91 
Q 1331 -91 842 396 
Q 353 884 353 1716 
Q 353 2575 817 3079 
Q 1281 3584 2069 3584 
Q 2775 3584 3186 3129 
Q 3597 2675 3597 1894 
z
M 3022 2063 
Q 3016 2534 2758 2815 
Q 2500 3097 2075 3097 
Q 1594 3097 1305 2825 
Q 1016 2553 972 2059 
L 3022 2063 
z
" transform="scale(0.015625)"/>
       <path id="DejaVuSans-63" d="M 3122 3366 
L 3122 2828 
Q 2878 2963 2633 3030 
Q 2388 3097 2138 3097 
Q 1578 3097 1268 2742 
Q 959 2388 959 1747 
Q 959 1106 1268 751 
Q 1578 397 2138 397 
Q 2388 397 2633 464 
Q 2878 531 3122 666 
L 3122 134 
Q 2881 22 2623 -34 
Q 2366 -91 2075 -91 
Q 1284 -91 818 406 
Q 353 903 353 1747 
Q 353 2603 823 3093 
Q 1294 3584 2113 3584 
Q 2378 3584 2631 3529 
Q 2884 3475 3122 3366 
z
" transform="scale(0.015625)"/>
       <path id="DejaVuSans-61" d="M 2194 1759 
Q 1497 1759 1228 1600 
Q 959 1441 959 1056 
Q 959 750 1161 570 
Q 1363 391 1709 391 
Q 2188 391 2477 730 
Q 2766 1069 2766 1631 
L 2766 1759 
L 2194 1759 
z
M 3341 1997 
L 3341 0 
L 2766 0 
L 2766 531 
Q 2569 213 2275 61 
Q 1981 -91 1556 -91 
Q 1019 -91 701 211 
Q 384 513 384 1019 
Q 384 1609 779 1909 
Q 1175 2209 1959 2209 
L 2766 2209 
L 2766 2266 
Q 2766 2663 2505 2880 
Q 2244 3097 1772 3097 
Q 1472 3097 1187 3025 
Q 903 2953 641 2809 
L 641 3341 
Q 956 3463 1253 3523 
Q 1550 3584 1831 3584 
Q 2591 3584 2966 3190 
Q 3341 2797 3341 1997 
z
" transform="scale(0.015625)"/>
       <path id="DejaVuSans-73" d="M 2834 3397 
L 2834 2853 
Q 2591 2978 2328 3040 
Q 2066 3103 1784 3103 
Q 1356 3103 1142 2972 
Q 928 2841 928 2578 
Q 928 2378 1081 2264 
Q 1234 2150 1697 2047 
L 1894 2003 
Q 2506 1872 2764 1633 
Q 3022 1394 3022 966 
Q 3022 478 2636 193 
Q 2250 -91 1575 -91 
Q 1294 -91 989 -36 
Q 684 19 347 128 
L 347 722 
Q 666 556 975 473 
Q 1284 391 1588 391 
Q 1994 391 2212 530 
Q 2431 669 2431 922 
Q 2431 1156 2273 1281 
Q 2116 1406 1581 1522 
L 1381 1569 
Q 847 1681 609 1914 
Q 372 2147 372 2553 
Q 372 3047 722 3315 
Q 1072 3584 1716 3584 
Q 2034 3584 2315 3537 
Q 2597 3491 2834 3397 
z
" transform="scale(0.015625)"/>
       <path id="DejaVuSans-74" d="M 1172 4494 
L 1172 3500 
L 2356 3500 
L 2356 3053 
L 1172 3053 
L 1172 1153 
Q 1172 725 1289 603 
Q 1406 481 1766 481 
L 2356 481 
L 2356 0 
L 1766 0 
Q 1100 0 847 248 
Q 594 497 594 1153 
L 594 3053 
L 172 3053 
L 172 3500 
L 594 3500 
L 594 4494 
L 1172 4494 
z
" transform="scale(0.015625)"/>
       <path id="DejaVuSans-69" d="M 603 3500 
L 1178 3500 
L 1178 0 
L 603 0 
L 603 3500 
z
M 603 4863 
L 1178 4863 
L 1178 4134 
L 603 4134 
L 603 4863 
z
" transform="scale(0.015625)"/>
       <path id="DejaVuSans-6e" d="M 3513 2113 
L 3513 0 
L 2938 0 
L 2938 2094 
Q 2938 2591 2744 2837 
Q 2550 3084 2163 3084 
Q 1697 3084 1428 2787 
Q 1159 2491 1159 1978 
L 1159 0 
L 581 0 
L 581 3500 
L 1159 3500 
L 1159 2956 
Q 1366 3272 1645 3428 
Q 1925 3584 2291 3584 
Q 2894 3584 3203 3211 
Q 3513 2838 3513 2113 
z
" transform="scale(0.015625)"/>
       <path id="DejaVuSans-67" d="M 2906 1791 
Q 2906 2416 2648 2759 
Q 2391 3103 1925 3103 
Q 1463 3103 1205 2759 
Q 947 2416 947 1791 
Q 947 1169 1205 825 
Q 1463 481 1925 481 
Q 2391 481 2648 825 
Q 2906 1169 2906 1791 
z
M 3481 434 
Q 3481 -459 3084 -895 
Q 2688 -1331 1869 -1331 
Q 1566 -1331 1297 -1286 
Q 1028 -1241 775 -1147 
L 775 -588 
Q 1028 -725 1275 -790 
Q 1522 -856 1778 -856 
Q 2344 -856 2625 -561 
Q 2906 -266 2906 331 
L 2906 616 
Q 2728 306 2450 153 
Q 2172 0 1784 0 
Q 1141 0 747 490 
Q 353 981 353 1791 
Q 353 2603 747 3093 
Q 1141 3584 1784 3584 
Q 2172 3584 2450 3431 
Q 2728 3278 2906 2969 
L 2906 3500 
L 3481 3500 
L 3481 434 
z
" transform="scale(0.015625)"/>
       <path id="DejaVuSans-20" transform="scale(0.015625)"/>
       <path id="DejaVuSans-4c" d="M 628 4666 
L 1259 4666 
L 1259 531 
L 3531 531 
L 3531 0 
L 628 0 
L 628 4666 
z
" transform="scale(0.015625)"/>
       <path id="DejaVuSans-68" d="M 3513 2113 
L 3513 0 
L 2938 0 
L 2938 2094 
Q 2938 2591 2744 2837 
Q 2550 3084 2163 3084 
Q 1697 3084 1428 2787 
Q 1159 2491 1159 1978 
L 1159 0 
L 581 0 
L 581 4863 
L 1159 4863 
L 1159 2956 
Q 1366 3272 1645 3428 
Q 1925 3584 2291 3584 
Q 2894 3584 3203 3211 
Q 3513 2838 3513 2113 
z
" transform="scale(0.015625)"/>
      </defs>
      <use xlink:href="#DejaVuSans-46"/>
      <use xlink:href="#DejaVuSans-6f" x="53.894531"/>
      <use xlink:href="#DejaVuSans-72" x="115.076172"/>
      <use xlink:href="#DejaVuSans-65" x="153.939453"/>
      <use xlink:href="#DejaVuSans-63" x="215.462891"/>
      <use xlink:href="#DejaVuSans-61" x="270.443359"/>
      <use xlink:href="#DejaVuSans-73" x="331.722656"/>
      <use xlink:href="#DejaVuSans-74" x="383.822266"/>
      <use xlink:href="#DejaVuSans-69" x="423.03125"/>
      <use xlink:href="#DejaVuSans-6e" x="450.814453"/>
      <use xlink:href="#DejaVuSans-67" x="514.193359"/>
      <use xlink:href="#DejaVuSans-20" x="577.669922"/>
      <use xlink:href="#DejaVuSans-4c" x="609.457031"/>
      <use xlink:href="#DejaVuSans-65" x="663.419922"/>
      <use xlink:href="#DejaVuSans-6e" x="724.943359"/>
      <use xlink:href="#DejaVuSans-67" x="788.322266"/>
      <use xlink:href="#DejaVuSans-74" x="851.798828"/>
      <use xlink:href="#DejaVuSans-68" x="891.007812"/>
     </g>
    </g>
   </g>
   <g id="matplotlib.axis_2">
    <g id="ytick_1">
     <g id="line2d_17">
      <path d="M 48.8975 269.363092 
L 807.59952 269.363092 
" clip-path="url(#pbed756318d)" style="fill: none; stroke: #b0b0b0; stroke-opacity: 0.4; stroke-width: 0.8; stroke-linecap: square"/>
     </g>
     <g id="line2d_18">
      <defs>
       <path id="m83ce44005c" d="M 0 0 
L -3.5 0 
" style="stroke: #000000; stroke-width: 0.8"/>
      </defs>
      <g>
       <use xlink:href="#m83ce44005c" x="48.8975" y="269.363092" style="stroke: #000000; stroke-width: 0.8"/>
      </g>
     </g>
     <g id="text_10">
      <!-- 0.0 -->
      <g transform="translate(22.81375 273.922154) scale(0.12 -0.12)">
       <defs>
        <path id="DejaVuSans-2e" d="M 684 794 
L 1344 794 
L 1344 0 
L 684 0 
L 684 794 
z
" transform="scale(0.015625)"/>
       </defs>
       <use xlink:href="#DejaVuSans-30"/>
       <use xlink:href="#DejaVuSans-2e" x="63.623047"/>
       <use xlink:href="#DejaVuSans-30" x="95.410156"/>
      </g>
     </g>
    </g>
    <g id="ytick_2">
     <g id="line2d_19">
      <path d="M 48.8975 246.275438 
L 807.59952 246.275438 
" clip-path="url(#pbed756318d)" style="fill: none; stroke: #b0b0b0; stroke-opacity: 0.4; stroke-width: 0.8; stroke-linecap: square"/>
     </g>
     <g id="line2d_20">
      <g>
       <use xlink:href="#m83ce44005c" x="48.8975" y="246.275438" style="stroke: #000000; stroke-width: 0.8"/>
      </g>
     </g>
     <g id="text_11">
      <!-- 0.1 -->
      <g transform="translate(22.81375 250.834501) scale(0.12 -0.12)">
       <use xlink:href="#DejaVuSans-30"/>
       <use xlink:href="#DejaVuSans-2e" x="63.623047"/>
       <use xlink:href="#DejaVuSans-31" x="95.410156"/>
      </g>
     </g>
    </g>
    <g id="ytick_3">
     <g id="line2d_21">
      <path d="M 48.8975 223.187785 
L 807.59952 223.187785 
" clip-path="url(#pbed756318d)" style="fill: none; stroke: #b0b0b0; stroke-opacity: 0.4; stroke-width: 0.8; stroke-linecap: square"/>
     </g>
     <g id="line2d_22">
      <g>
       <use xlink:href="#m83ce44005c" x="48.8975" y="223.187785" style="stroke: #000000; stroke-width: 0.8"/>
      </g>
     </g>
     <g id="text_12">
      <!-- 0.2 -->
      <g transform="translate(22.81375 227.746848) scale(0.12 -0.12)">
       <use xlink:href="#DejaVuSans-30"/>
       <use xlink:href="#DejaVuSans-2e" x="63.623047"/>
       <use xlink:href="#DejaVuSans-32" x="95.410156"/>
      </g>
     </g>
    </g>
    <g id="ytick_4">
     <g id="line2d_23">
      <path d="M 48.8975 200.100132 
L 807.59952 200.100132 
" clip-path="url(#pbed756318d)" style="fill: none; stroke: #b0b0b0; stroke-opacity: 0.4; stroke-width: 0.8; stroke-linecap: square"/>
     </g>
     <g id="line2d_24">
      <g>
       <use xlink:href="#m83ce44005c" x="48.8975" y="200.100132" style="stroke: #000000; stroke-width: 0.8"/>
      </g>
     </g>
     <g id="text_13">
      <!-- 0.3 -->
      <g transform="translate(22.81375 204.659195) scale(0.12 -0.12)">
       <defs>
        <path id="DejaVuSans-33" d="M 2597 2516 
Q 3050 2419 3304 2112 
Q 3559 1806 3559 1356 
Q 3559 666 3084 287 
Q 2609 -91 1734 -91 
Q 1441 -91 1130 -33 
Q 819 25 488 141 
L 488 750 
Q 750 597 1062 519 
Q 1375 441 1716 441 
Q 2309 441 2620 675 
Q 2931 909 2931 1356 
Q 2931 1769 2642 2001 
Q 2353 2234 1838 2234 
L 1294 2234 
L 1294 2753 
L 1863 2753 
Q 2328 2753 2575 2939 
Q 2822 3125 2822 3475 
Q 2822 3834 2567 4026 
Q 2313 4219 1838 4219 
Q 1578 4219 1281 4162 
Q 984 4106 628 3988 
L 628 4550 
Q 988 4650 1302 4700 
Q 1616 4750 1894 4750 
Q 2613 4750 3031 4423 
Q 3450 4097 3450 3541 
Q 3450 3153 3228 2886 
Q 3006 2619 2597 2516 
z
" transform="scale(0.015625)"/>
       </defs>
       <use xlink:href="#DejaVuSans-30"/>
       <use xlink:href="#DejaVuSans-2e" x="63.623047"/>
       <use xlink:href="#DejaVuSans-33" x="95.410156"/>
      </g>
     </g>
    </g>
    <g id="ytick_5">
     <g id="line2d_25">
      <path d="M 48.8975 177.012479 
L 807.59952 177.012479 
" clip-path="url(#pbed756318d)" style="fill: none; stroke: #b0b0b0; stroke-opacity: 0.4; stroke-width: 0.8; stroke-linecap: square"/>
     </g>
     <g id="line2d_26">
      <g>
       <use xlink:href="#m83ce44005c" x="48.8975" y="177.012479" style="stroke: #000000; stroke-width: 0.8"/>
      </g>
     </g>
     <g id="text_14">
      <!-- 0.4 -->
      <g transform="translate(22.81375 181.571541) scale(0.12 -0.12)">
       <use xlink:href="#DejaVuSans-30"/>
       <use xlink:href="#DejaVuSans-2e" x="63.623047"/>
       <use xlink:href="#DejaVuSans-34" x="95.410156"/>
      </g>
     </g>
    </g>
    <g id="ytick_6">
     <g id="line2d_27">
      <path d="M 48.8975 153.924826 
L 807.59952 153.924826 
" clip-path="url(#pbed756318d)" style="fill: none; stroke: #b0b0b0; stroke-opacity: 0.4; stroke-width: 0.8; stroke-linecap: square"/>
     </g>
     <g id="line2d_28">
      <g>
       <use xlink:href="#m83ce44005c" x="48.8975" y="153.924826" style="stroke: #000000; stroke-width: 0.8"/>
      </g>
     </g>
     <g id="text_15">
      <!-- 0.5 -->
      <g transform="translate(22.81375 158.483888) scale(0.12 -0.12)">
       <defs>
        <path id="DejaVuSans-35" d="M 691 4666 
L 3169 4666 
L 3169 4134 
L 1269 4134 
L 1269 2991 
Q 1406 3038 1543 3061 
Q 1681 3084 1819 3084 
Q 2600 3084 3056 2656 
Q 3513 2228 3513 1497 
Q 3513 744 3044 326 
Q 2575 -91 1722 -91 
Q 1428 -91 1123 -41 
Q 819 9 494 109 
L 494 744 
Q 775 591 1075 516 
Q 1375 441 1709 441 
Q 2250 441 2565 725 
Q 2881 1009 2881 1497 
Q 2881 1984 2565 2268 
Q 2250 2553 1709 2553 
Q 1456 2553 1204 2497 
Q 953 2441 691 2322 
L 691 4666 
z
" transform="scale(0.015625)"/>
       </defs>
       <use xlink:href="#DejaVuSans-30"/>
       <use xlink:href="#DejaVuSans-2e" x="63.623047"/>
       <use xlink:href="#DejaVuSans-35" x="95.410156"/>
      </g>
     </g>
    </g>
    <g id="ytick_7">
     <g id="line2d_29">
      <path d="M 48.8975 130.837173 
L 807.59952 130.837173 
" clip-path="url(#pbed756318d)" style="fill: none; stroke: #b0b0b0; stroke-opacity: 0.4; stroke-width: 0.8; stroke-linecap: square"/>
     </g>
     <g id="line2d_30">
      <g>
       <use xlink:href="#m83ce44005c" x="48.8975" y="130.837173" style="stroke: #000000; stroke-width: 0.8"/>
      </g>
     </g>
     <g id="text_16">
      <!-- 0.6 -->
      <g transform="translate(22.81375 135.396235) scale(0.12 -0.12)">
       <use xlink:href="#DejaVuSans-30"/>
       <use xlink:href="#DejaVuSans-2e" x="63.623047"/>
       <use xlink:href="#DejaVuSans-36" x="95.410156"/>
      </g>
     </g>
    </g>
    <g id="ytick_8">
     <g id="line2d_31">
      <path d="M 48.8975 107.749519 
L 807.59952 107.749519 
" clip-path="url(#pbed756318d)" style="fill: none; stroke: #b0b0b0; stroke-opacity: 0.4; stroke-width: 0.8; stroke-linecap: square"/>
     </g>
     <g id="line2d_32">
      <g>
       <use xlink:href="#m83ce44005c" x="48.8975" y="107.749519" style="stroke: #000000; stroke-width: 0.8"/>
      </g>
     </g>
     <g id="text_17">
      <!-- 0.7 -->
      <g transform="translate(22.81375 112.308582) scale(0.12 -0.12)">
       <defs>
        <path id="DejaVuSans-37" d="M 525 4666 
L 3525 4666 
L 3525 4397 
L 1831 0 
L 1172 0 
L 2766 4134 
L 525 4134 
L 525 4666 
z
" transform="scale(0.015625)"/>
       </defs>
       <use xlink:href="#DejaVuSans-30"/>
       <use xlink:href="#DejaVuSans-2e" x="63.623047"/>
       <use xlink:href="#DejaVuSans-37" x="95.410156"/>
      </g>
     </g>
    </g>
    <g id="ytick_9">
     <g id="line2d_33">
      <path d="M 48.8975 84.661866 
L 807.59952 84.661866 
" clip-path="url(#pbed756318d)" style="fill: none; stroke: #b0b0b0; stroke-opacity: 0.4; stroke-width: 0.8; stroke-linecap: square"/>
     </g>
     <g id="line2d_34">
      <g>
       <use xlink:href="#m83ce44005c" x="48.8975" y="84.661866" style="stroke: #000000; stroke-width: 0.8"/>
      </g>
     </g>
     <g id="text_18">
      <!-- 0.8 -->
      <g transform="translate(22.81375 89.220929) scale(0.12 -0.12)">
       <use xlink:href="#DejaVuSans-30"/>
       <use xlink:href="#DejaVuSans-2e" x="63.623047"/>
       <use xlink:href="#DejaVuSans-38" x="95.410156"/>
      </g>
     </g>
    </g>
    <g id="ytick_10">
     <g id="line2d_35">
      <path d="M 48.8975 61.574213 
L 807.59952 61.574213 
" clip-path="url(#pbed756318d)" style="fill: none; stroke: #b0b0b0; stroke-opacity: 0.4; stroke-width: 0.8; stroke-linecap: square"/>
     </g>
     <g id="line2d_36">
      <g>
       <use xlink:href="#m83ce44005c" x="48.8975" y="61.574213" style="stroke: #000000; stroke-width: 0.8"/>
      </g>
     </g>
     <g id="text_19">
      <!-- 0.9 -->
      <g transform="translate(22.81375 66.133276) scale(0.12 -0.12)">
       <defs>
        <path id="DejaVuSans-39" d="M 703 97 
L 703 672 
Q 941 559 1184 500 
Q 1428 441 1663 441 
Q 2288 441 2617 861 
Q 2947 1281 2994 2138 
Q 2813 1869 2534 1725 
Q 2256 1581 1919 1581 
Q 1219 1581 811 2004 
Q 403 2428 403 3163 
Q 403 3881 828 4315 
Q 1253 4750 1959 4750 
Q 2769 4750 3195 4129 
Q 3622 3509 3622 2328 
Q 3622 1225 3098 567 
Q 2575 -91 1691 -91 
Q 1453 -91 1209 -44 
Q 966 3 703 97 
z
M 1959 2075 
Q 2384 2075 2632 2365 
Q 2881 2656 2881 3163 
Q 2881 3666 2632 3958 
Q 2384 4250 1959 4250 
Q 1534 4250 1286 3958 
Q 1038 3666 1038 3163 
Q 1038 2656 1286 2365 
Q 1534 2075 1959 2075 
z
" transform="scale(0.015625)"/>
       </defs>
       <use xlink:href="#DejaVuSans-30"/>
       <use xlink:href="#DejaVuSans-2e" x="63.623047"/>
       <use xlink:href="#DejaVuSans-39" x="95.410156"/>
      </g>
     </g>
    </g>
    <g id="ytick_11">
     <g id="line2d_37">
      <path d="M 48.8975 38.48656 
L 807.59952 38.48656 
" clip-path="url(#pbed756318d)" style="fill: none; stroke: #b0b0b0; stroke-opacity: 0.4; stroke-width: 0.8; stroke-linecap: square"/>
     </g>
     <g id="line2d_38">
      <g>
       <use xlink:href="#m83ce44005c" x="48.8975" y="38.48656" style="stroke: #000000; stroke-width: 0.8"/>
      </g>
     </g>
     <g id="text_20">
      <!-- 1.0 -->
      <g transform="translate(22.81375 43.045622) scale(0.12 -0.12)">
       <use xlink:href="#DejaVuSans-31"/>
       <use xlink:href="#DejaVuSans-2e" x="63.623047"/>
       <use xlink:href="#DejaVuSans-30" x="95.410156"/>
      </g>
     </g>
    </g>
    <g id="text_21">
     <!-- Solar Enery Production -->
     <g transform="translate(16.318125 221.097318) rotate(-90) scale(0.12 -0.12)">
      <defs>
       <path id="DejaVuSans-53" d="M 3425 4513 
L 3425 3897 
Q 3066 4069 2747 4153 
Q 2428 4238 2131 4238 
Q 1616 4238 1336 4038 
Q 1056 3838 1056 3469 
Q 1056 3159 1242 3001 
Q 1428 2844 1947 2747 
L 2328 2669 
Q 3034 2534 3370 2195 
Q 3706 1856 3706 1288 
Q 3706 609 3251 259 
Q 2797 -91 1919 -91 
Q 1588 -91 1214 -16 
Q 841 59 441 206 
L 441 856 
Q 825 641 1194 531 
Q 1563 422 1919 422 
Q 2459 422 2753 634 
Q 3047 847 3047 1241 
Q 3047 1584 2836 1778 
Q 2625 1972 2144 2069 
L 1759 2144 
Q 1053 2284 737 2584 
Q 422 2884 422 3419 
Q 422 4038 858 4394 
Q 1294 4750 2059 4750 
Q 2388 4750 2728 4690 
Q 3069 4631 3425 4513 
z
" transform="scale(0.015625)"/>
       <path id="DejaVuSans-6c" d="M 603 4863 
L 1178 4863 
L 1178 0 
L 603 0 
L 603 4863 
z
" transform="scale(0.015625)"/>
       <path id="DejaVuSans-45" d="M 628 4666 
L 3578 4666 
L 3578 4134 
L 1259 4134 
L 1259 2753 
L 3481 2753 
L 3481 2222 
L 1259 2222 
L 1259 531 
L 3634 531 
L 3634 0 
L 628 0 
L 628 4666 
z
" transform="scale(0.015625)"/>
       <path id="DejaVuSans-79" d="M 2059 -325 
Q 1816 -950 1584 -1140 
Q 1353 -1331 966 -1331 
L 506 -1331 
L 506 -850 
L 844 -850 
Q 1081 -850 1212 -737 
Q 1344 -625 1503 -206 
L 1606 56 
L 191 3500 
L 800 3500 
L 1894 763 
L 2988 3500 
L 3597 3500 
L 2059 -325 
z
" transform="scale(0.015625)"/>
       <path id="DejaVuSans-50" d="M 1259 4147 
L 1259 2394 
L 2053 2394 
Q 2494 2394 2734 2622 
Q 2975 2850 2975 3272 
Q 2975 3691 2734 3919 
Q 2494 4147 2053 4147 
L 1259 4147 
z
M 628 4666 
L 2053 4666 
Q 2838 4666 3239 4311 
Q 3641 3956 3641 3272 
Q 3641 2581 3239 2228 
Q 2838 1875 2053 1875 
L 1259 1875 
L 1259 0 
L 628 0 
L 628 4666 
z
" transform="scale(0.015625)"/>
       <path id="DejaVuSans-64" d="M 2906 2969 
L 2906 4863 
L 3481 4863 
L 3481 0 
L 2906 0 
L 2906 525 
Q 2725 213 2448 61 
Q 2172 -91 1784 -91 
Q 1150 -91 751 415 
Q 353 922 353 1747 
Q 353 2572 751 3078 
Q 1150 3584 1784 3584 
Q 2172 3584 2448 3432 
Q 2725 3281 2906 2969 
z
M 947 1747 
Q 947 1113 1208 752 
Q 1469 391 1925 391 
Q 2381 391 2643 752 
Q 2906 1113 2906 1747 
Q 2906 2381 2643 2742 
Q 2381 3103 1925 3103 
Q 1469 3103 1208 2742 
Q 947 2381 947 1747 
z
" transform="scale(0.015625)"/>
       <path id="DejaVuSans-75" d="M 544 1381 
L 544 3500 
L 1119 3500 
L 1119 1403 
Q 1119 906 1312 657 
Q 1506 409 1894 409 
Q 2359 409 2629 706 
Q 2900 1003 2900 1516 
L 2900 3500 
L 3475 3500 
L 3475 0 
L 2900 0 
L 2900 538 
Q 2691 219 2414 64 
Q 2138 -91 1772 -91 
Q 1169 -91 856 284 
Q 544 659 544 1381 
z
M 1991 3584 
L 1991 3584 
z
" transform="scale(0.015625)"/>
      </defs>
      <use xlink:href="#DejaVuSans-53"/>
      <use xlink:href="#DejaVuSans-6f" x="63.476562"/>
      <use xlink:href="#DejaVuSans-6c" x="124.658203"/>
      <use xlink:href="#DejaVuSans-61" x="152.441406"/>
      <use xlink:href="#DejaVuSans-72" x="213.720703"/>
      <use xlink:href="#DejaVuSans-20" x="254.833984"/>
      <use xlink:href="#DejaVuSans-45" x="286.621094"/>
      <use xlink:href="#DejaVuSans-6e" x="349.804688"/>
      <use xlink:href="#DejaVuSans-65" x="413.183594"/>
      <use xlink:href="#DejaVuSans-72" x="474.707031"/>
      <use xlink:href="#DejaVuSans-79" x="515.820312"/>
      <use xlink:href="#DejaVuSans-20" x="575"/>
      <use xlink:href="#DejaVuSans-50" x="606.787109"/>
      <use xlink:href="#DejaVuSans-72" x="665.339844"/>
      <use xlink:href="#DejaVuSans-6f" x="704.203125"/>
      <use xlink:href="#DejaVuSans-64" x="765.384766"/>
      <use xlink:href="#DejaVuSans-75" x="828.861328"/>
      <use xlink:href="#DejaVuSans-63" x="892.240234"/>
      <use xlink:href="#DejaVuSans-74" x="947.220703"/>
      <use xlink:href="#DejaVuSans-69" x="986.429688"/>
      <use xlink:href="#DejaVuSans-6f" x="1014.212891"/>
      <use xlink:href="#DejaVuSans-6e" x="1075.394531"/>
     </g>
    </g>
   </g>
   <g id="line2d_39">
    <path d="M 48.8975 269.363092 
L 53.955513 265.515566 
L 59.013527 237.489053 
L 64.07154 203.048698 
L 69.129554 170.326525 
L 74.187567 145.108459 
L 79.245581 130.054561 
L 84.303594 126.086218 
L 89.361608 133.175167 
L 94.419621 150.965173 
L 99.477635 179.072678 
L 104.535648 213.61576 
L 109.593662 243.48398 
L 114.651675 261.983601 
L 119.709689 269.363092 
L 124.767702 269.363092 
L 129.825715 264.071281 
L 134.883729 244.014497 
L 139.941742 213.521096 
L 144.999756 181.151199 
L 150.057769 154.586049 
L 155.115783 137.922235 
L 160.173796 132.770219 
L 165.23181 139.239531 
L 170.289823 156.68326 
L 175.347837 184.054878 
L 180.40585 217.155265 
L 185.463864 245.535692 
L 190.521877 263.093795 
L 195.579891 269.363092 
L 200.637904 269.363092 
L 205.695917 264.404904 
L 210.753931 244.820228 
L 215.811944 214.688315 
L 220.869958 182.276076 
L 225.927971 155.489989 
L 230.985985 138.732032 
L 236.043998 133.712786 
L 241.102012 140.449879 
L 246.160025 158.190242 
L 251.218039 185.777383 
L 256.276052 218.740482 
L 261.334066 246.609661 
L 266.392079 263.680085 
L 271.450093 269.363092 
L 276.508106 269.363092 
L 281.566119 264.43392 
L 286.624133 244.996184 
L 291.682146 214.97936 
L 296.74016 182.488069 
L 301.798173 155.586299 
L 306.856187 138.888368 
L 311.9142 134.136768 
L 316.972214 141.225169 
L 322.030227 159.30523 
L 327.088241 187.155047 
L 332.146254 220.059346 
L 337.204268 247.501153 
L 342.262281 264.149515 
L 347.320295 269.363092 
L 352.378308 269.363092 
L 357.436321 264.44914 
L 362.494335 245.214367 
L 367.552348 215.368715 
L 372.610362 182.807304 
L 377.668375 155.767768 
L 382.726389 139.117398 
L 387.784402 134.637271 
L 392.842416 142.085376 
L 397.900429 160.513019 
L 402.958443 188.624179 
L 408.016456 221.433592 
L 413.07447 248.400785 
L 418.132483 264.603638 
L 423.190497 269.363092 
L 428.24851 269.363092 
L 433.306523 264.527978 
L 438.364537 245.655242 
L 443.42255 216.150516 
L 448.480564 183.57556 
L 453.538577 156.354448 
L 458.596591 139.684881 
L 463.654604 135.425128 
L 468.712618 143.202619 
L 473.770631 161.962395 
L 478.828645 190.306754 
L 483.886658 222.939314 
L 488.944672 249.344395 
L 494.002685 265.054964 
L 499.060699 269.363092 
L 504.118712 269.363092 
L 509.176725 264.696936 
L 514.234739 246.398552 
L 519.292752 217.490256 
L 524.350766 185.025372 
L 529.408779 157.590854 
L 534.466793 140.80028 
L 539.524806 136.658713 
L 544.58282 144.692443 
L 549.640833 163.738293 
L 554.698847 192.254585 
L 559.75686 224.59214 
L 564.814874 250.331064 
L 569.872887 265.496733 
L 574.930901 269.363092 
L 579.988914 269.363092 
L 585.046927 264.957428 
L 590.104941 247.453435 
L 595.162954 219.448867 
L 600.220968 187.298241 
L 605.278981 159.662805 
L 610.336995 142.632077 
L 615.395008 138.455659 
L 620.453022 146.621587 
L 625.511035 165.864871 
L 630.569049 194.450399 
L 635.627062 226.353509 
L 640.685076 251.334287 
L 645.743089 265.91548 
L 650.801103 269.363092 
L 655.859116 269.363092 
L 660.917129 265.284593 
L 665.975143 248.733909 
L 671.033156 221.907718 
L 676.09117 190.325275 
L 681.149183 162.568968 
L 686.207197 145.198662 
L 691.26521 140.809954 
L 696.323224 148.943895 
L 701.381237 168.253185 
L 706.439251 196.770985 
L 711.497264 228.115715 
L 716.555278 252.299066 
L 721.613291 266.294057 
L 726.671305 269.363092 
L 731.729318 269.363092 
L 736.787331 265.63605 
L 741.845345 250.078661 
L 746.903358 224.569847 
L 751.961372 193.773607 
L 757.019385 166.028228 
L 762.077399 148.279301 
L 767.135412 143.530279 
L 772.193426 151.468239 
L 777.251439 170.695575 
L 782.309453 199.007417 
L 787.367466 229.729533 
L 792.42548 253.155425 
L 797.483493 266.614599 
L 802.541507 269.363092 
L 802.541507 269.363092 
" clip-path="url(#pbed756318d)" style="fill: none; stroke: #1f77b4; stroke-width: 2; stroke-linecap: square"/>
   </g>
   <g id="line2d_40">
    <path d="M 48.8975 269.363092 
L 53.955513 256.699875 
L 59.013527 239.286974 
L 64.07154 206.926772 
L 69.129554 171.581376 
L 74.187567 145.994759 
L 79.245581 121.269958 
L 84.303594 116.279444 
L 89.361608 115.365363 
L 94.419621 124.36097 
L 99.477635 158.544757 
L 104.535648 199.939645 
L 109.593662 232.008559 
L 114.651675 251.519068 
L 119.709689 269.363092 
L 124.767702 269.363092 
L 129.825715 260.668409 
L 134.883729 234.538622 
L 139.941742 207.6391 
L 144.999756 170.960245 
L 150.057769 137.130821 
L 155.115783 112.470864 
L 160.173796 107.048717 
L 165.23181 109.47546 
L 170.289823 117.835257 
L 175.347837 152.924622 
L 180.40585 194.05023 
L 185.463864 228.775787 
L 190.521877 251.367988 
L 195.579891 269.363092 
L 200.637904 269.363092 
L 205.695917 258.641054 
L 210.753931 240.096033 
L 215.811944 207.610793 
L 220.869958 166.407835 
L 225.927971 129.523471 
L 230.985985 106.121747 
L 236.043998 95.606383 
L 241.102012 99.270671 
L 246.160025 113.106617 
L 251.218039 144.285906 
L 256.276052 191.079555 
L 261.334066 224.182609 
L 266.392079 248.787834 
L 271.450093 269.363092 
L 276.508106 269.363092 
L 281.566119 253.597033 
L 286.624133 233.681749 
L 291.682146 199.87318 
L 296.74016 161.999285 
L 301.798173 125.223377 
L 306.856187 104.087926 
L 311.9142 95.815581 
L 316.972214 95.139976 
L 322.030227 116.269117 
L 327.088241 144.516007 
L 332.146254 188.793792 
L 337.204268 224.613743 
L 342.262281 249.090373 
L 347.320295 269.363092 
L 352.378308 269.363092 
L 357.436321 253.313161 
L 362.494335 238.270903 
L 372.610362 151.530913 
L 377.668375 117.052652 
L 382.726389 95.820706 
L 387.784402 88.748519 
L 392.842416 86.511824 
L 397.900429 99.778103 
L 402.958443 138.98626 
L 408.016456 182.656579 
L 413.07447 217.663632 
L 418.132483 245.125111 
L 423.190497 269.363092 
L 428.24851 269.363092 
L 433.306523 252.364472 
L 438.364537 233.895273 
L 443.42255 199.591366 
L 448.480564 151.117159 
L 453.538577 112.949805 
L 458.596591 91.92418 
L 463.654604 83.586085 
L 468.712618 83.324214 
L 473.770631 94.291646 
L 478.828645 131.704446 
L 483.886658 175.244733 
L 488.944672 221.071185 
L 494.002685 241.694705 
L 499.060699 269.363092 
L 504.118712 269.363092 
L 509.176725 258.313942 
L 514.234739 238.756542 
L 519.292752 199.644994 
L 524.350766 156.279572 
L 529.408779 114.94801 
L 534.466793 96.213716 
L 539.524806 86.225062 
L 544.58282 81.494656 
L 549.640833 99.738552 
L 554.698847 136.405559 
L 559.75686 182.761859 
L 564.814874 223.982 
L 574.930901 269.363092 
L 579.988914 269.363092 
L 585.046927 261.09957 
L 590.104941 241.800847 
L 595.162954 202.030629 
L 600.220968 157.935613 
L 605.278981 124.933274 
L 610.336995 98.189786 
L 615.395008 90.81431 
L 620.453022 91.97675 
L 625.511035 104.773752 
L 630.569049 139.516221 
L 635.627062 187.13638 
L 640.685076 225.465181 
L 645.743089 250.070534 
L 650.801103 269.363092 
L 655.859116 269.363092 
L 660.917129 268.031358 
L 665.975143 250.033132 
L 671.033156 214.742236 
L 676.09117 169.644223 
L 681.149183 135.502527 
L 686.207197 108.401616 
L 691.26521 101.684347 
L 696.323224 100.410185 
L 701.381237 112.559239 
L 706.439251 145.618511 
L 716.555278 230.757287 
L 721.613291 249.572215 
L 726.671305 269.363092 
L 731.729318 269.363092 
L 736.787331 268.320863 
L 741.845345 252.919543 
L 751.961372 175.231206 
L 757.019385 134.206832 
L 767.135412 104.428354 
L 772.193426 102.980388 
L 777.251439 124.27864 
L 782.309453 150.227523 
L 787.367466 192.17448 
L 792.42548 230.94652 
L 797.483493 261.62855 
L 802.541507 269.363092 
L 802.541507 269.363092 
" clip-path="url(#pbed756318d)" style="fill: none; stroke: #ff7f0e; stroke-width: 2; stroke-linecap: square"/>
   </g>
   <g id="line2d_41">
    <path d="M 48.8975 269.363092 
L 53.955513 251.81632 
L 59.013527 222.040363 
L 64.07154 181.592924 
L 69.129554 143.369012 
L 74.187567 107.656164 
L 79.245581 86.208208 
L 84.303594 74.311265 
L 89.361608 78.5278 
L 94.419621 97.110348 
L 99.477635 128.378892 
L 104.535648 165.631351 
L 109.593662 214.510469 
L 114.651675 245.727137 
L 119.709689 269.363092 
L 124.767702 269.363092 
L 129.825715 265.276341 
L 134.883729 235.087185 
L 139.941742 195.517434 
L 144.999756 152.176998 
L 150.057769 117.090013 
L 155.115783 93.007868 
L 160.173796 80.404618 
L 165.23181 84.721363 
L 170.289823 102.522948 
L 175.347837 135.635941 
L 180.40585 177.859122 
L 185.463864 224.20388 
L 190.521877 259.860971 
L 195.579891 269.363092 
L 205.695917 269.363092 
L 210.753931 251.038966 
L 220.869958 174.060152 
L 225.927971 138.2598 
L 230.985985 115.933294 
L 236.043998 107.953464 
L 241.102012 106.744438 
L 246.160025 127.119437 
L 251.218039 151.852155 
L 256.276052 192.486002 
L 261.334066 235.173094 
L 266.392079 269.363092 
L 281.566119 269.363092 
L 286.624133 257.460361 
L 291.682146 219.644784 
L 296.74016 185.439666 
L 301.798173 155.784502 
L 306.856187 136.655203 
L 311.9142 129.892026 
L 316.972214 133.854556 
L 322.030227 149.148914 
L 327.088241 180.947007 
L 332.146254 216.72052 
L 337.204268 249.23133 
L 342.262281 269.363092 
L 357.436321 269.363092 
L 362.494335 260.180631 
L 367.552348 227.42255 
L 372.610362 197.352373 
L 377.668375 171.912315 
L 382.726389 154.817736 
L 387.784402 147.308228 
L 392.842416 154.532636 
L 397.900429 169.876418 
L 402.958443 192.163747 
L 408.016456 220.528392 
L 413.07447 249.750876 
L 418.132483 269.363092 
L 428.24851 269.363092 
L 433.306523 269.096767 
L 438.364537 242.628938 
L 443.42255 213.128707 
L 448.480564 189.593001 
L 453.538577 168.694644 
L 458.596591 154.343936 
L 463.654604 148.860549 
L 468.712618 153.603515 
L 473.770631 164.863054 
L 478.828645 185.143618 
L 483.886658 212.371898 
L 488.944672 237.99127 
L 494.002685 254.001659 
L 499.060699 269.363092 
L 504.118712 269.363092 
L 509.176725 248.132419 
L 514.234739 221.843343 
L 519.292752 191.960705 
L 524.350766 169.981808 
L 529.408779 153.448066 
L 534.466793 142.754038 
L 539.524806 144.733238 
L 544.58282 152.979121 
L 549.640833 166.775169 
L 554.698847 180.94661 
L 559.75686 205.862515 
L 564.814874 232.567528 
L 569.872887 244.839228 
L 574.930901 269.363092 
L 579.988914 269.363092 
L 585.046927 242.566239 
L 590.104941 226.981712 
L 595.162954 201.001022 
L 600.220968 179.107776 
L 605.278981 162.895702 
L 610.336995 157.370259 
L 615.395008 156.611702 
L 620.453022 162.240209 
L 625.511035 176.430767 
L 630.569049 194.464667 
L 635.627062 218.458173 
L 640.685076 246.78273 
L 645.743089 266.643834 
L 650.801103 269.363092 
L 660.917129 269.363092 
L 665.975143 254.820955 
L 671.033156 233.428522 
L 676.09117 210.04545 
L 681.149183 195.092496 
L 686.207197 182.706511 
L 691.26521 181.600561 
L 696.323224 185.76607 
L 701.381237 199.468816 
L 706.439251 219.099941 
L 716.555278 265.443782 
L 721.613291 269.363092 
L 736.787331 269.363092 
L 741.845345 266.730339 
L 746.903358 242.811886 
L 751.961372 215.814974 
L 757.019385 195.841961 
L 762.077399 185.068805 
L 767.135412 180.950766 
L 772.193426 183.440335 
L 777.251439 195.416839 
L 782.309453 212.592642 
L 787.367466 234.62056 
L 792.42548 260.014529 
L 797.483493 269.363092 
L 802.541507 269.363092 
L 802.541507 269.363092 
" clip-path="url(#pbed756318d)" style="fill: none; stroke: #2ca02c; stroke-width: 2; stroke-linecap: square"/>
   </g>
   <g id="line2d_42">
    <path d="M 48.8975 269.363092 
L 53.955513 269.363092 
L 59.013527 239.860412 
L 64.07154 204.817217 
L 69.129554 158.757771 
L 74.187567 123.301917 
L 79.245581 84.922694 
L 84.303594 66.838844 
L 89.361608 47.931666 
L 94.419621 60.860929 
L 99.477635 89.640363 
L 104.535648 131.697084 
L 109.593662 178.175977 
L 114.651675 216.025132 
L 119.709689 269.363092 
L 124.767702 269.363092 
L 129.825715 263.311861 
L 134.883729 230.877528 
L 139.941742 192.018345 
L 144.999756 147.783902 
L 150.057769 109.267519 
L 155.115783 85.307582 
L 160.173796 71.811532 
L 165.23181 62.873401 
L 170.289823 90.115839 
L 175.347837 122.203815 
L 180.40585 166.649872 
L 185.463864 207.098087 
L 190.521877 234.117473 
L 195.579891 269.363092 
L 200.637904 269.363092 
L 205.695917 224.341695 
L 210.753931 184.634863 
L 215.811944 125.911953 
L 220.869958 65.749292 
L 225.927971 38.48656 
L 246.160025 38.48656 
L 251.218039 69.865396 
L 256.276052 134.026695 
L 261.334066 186.430191 
L 266.392079 223.728184 
L 271.450093 269.363092 
L 276.508106 269.363092 
L 281.566119 223.88398 
L 286.624133 171.988536 
L 296.74016 50.767377 
L 301.798173 38.48656 
L 316.972214 38.48656 
L 322.030227 41.790842 
L 332.146254 132.724634 
L 337.204268 181.461931 
L 342.262281 211.277936 
L 347.320295 269.363092 
L 352.378308 269.363092 
L 357.436321 208.38998 
L 362.494335 180.531762 
L 367.552348 141.50944 
L 372.610362 101.587247 
L 377.668375 65.858928 
L 382.726389 42.486357 
L 387.784402 38.48656 
L 397.900429 38.48656 
L 402.958443 62.809125 
L 408.016456 101.243915 
L 413.07447 143.568873 
L 418.132483 178.371751 
L 423.190497 269.363092 
L 428.24851 269.363092 
L 433.306523 199.432465 
L 438.364537 157.508775 
L 443.42255 107.286674 
L 448.480564 62.757017 
L 453.538577 38.48656 
L 478.828645 38.48656 
L 483.886658 78.577115 
L 488.944672 136.610065 
L 494.002685 178.679398 
L 499.060699 269.363092 
L 504.118712 269.363092 
L 509.176725 203.203766 
L 514.234739 156.376227 
L 519.292752 104.713585 
L 524.350766 55.382439 
L 529.408779 38.48656 
L 549.640833 38.48656 
L 554.698847 88.513545 
L 559.75686 143.206304 
L 564.814874 191.190579 
L 569.872887 212.17421 
L 574.930901 269.363092 
L 579.988914 269.363092 
L 585.046927 214.487873 
L 590.104941 174.718963 
L 595.162954 129.931167 
L 600.220968 82.957732 
L 605.278981 58.351338 
L 610.336995 38.48656 
L 620.453022 38.48656 
L 625.511035 47.692355 
L 630.569049 77.940866 
L 635.627062 116.6448 
L 640.685076 157.707082 
L 645.743089 190.464024 
L 650.801103 269.363092 
L 655.859116 269.363092 
L 660.917129 208.231553 
L 665.975143 180.4014 
L 671.033156 141.978143 
L 676.09117 107.119379 
L 681.149183 81.791078 
L 686.207197 71.067062 
L 691.26521 63.860376 
L 696.323224 67.269521 
L 701.381237 93.973939 
L 706.439251 120.03065 
L 711.497264 168.212509 
L 716.555278 214.811977 
L 721.613291 241.23391 
L 726.671305 269.363092 
L 736.787331 269.363092 
L 741.845345 243.067522 
L 746.903358 193.877548 
L 757.019385 124.145724 
L 762.077399 107.005935 
L 767.135412 93.818051 
L 772.193426 97.646963 
L 777.251439 129.732913 
L 782.309453 169.708146 
L 787.367466 213.631298 
L 792.42548 246.179627 
L 797.483493 269.363092 
L 802.541507 269.363092 
L 802.541507 269.363092 
" clip-path="url(#pbed756318d)" style="fill: none; stroke: #d62728; stroke-width: 2; stroke-linecap: square"/>
   </g>
   <g id="line2d_43">
    <path d="M 48.8975 269.363092 
L 53.955513 250.829161 
L 59.013527 214.703128 
L 64.07154 183.704183 
L 69.129554 126.481813 
L 74.187567 84.090446 
L 79.245581 79.622955 
L 84.303594 76.662164 
L 89.361608 78.37294 
L 94.419621 84.263456 
L 99.477635 114.486795 
L 104.535648 177.394222 
L 109.593662 221.685114 
L 114.651675 252.273305 
L 119.709689 269.363092 
L 124.767702 269.363092 
L 129.825715 252.703986 
L 134.883729 224.455208 
L 139.941742 191.128581 
L 144.999756 141.25186 
L 150.057769 107.039848 
L 155.115783 100.638824 
L 160.173796 96.702622 
L 165.23181 98.739949 
L 170.289823 102.959044 
L 175.347837 133.185685 
L 180.40585 197.707964 
L 185.463864 230.297249 
L 190.521877 251.42313 
L 195.579891 269.363092 
L 200.637904 269.363092 
L 205.695917 250.031554 
L 210.753931 234.244906 
L 215.811944 194.226474 
L 220.869958 145.277921 
L 225.927971 113.692662 
L 230.985985 104.877483 
L 236.043998 102.92275 
L 241.102012 100.788107 
L 246.160025 107.938305 
L 251.218039 134.209263 
L 256.276052 200.521003 
L 261.334066 235.87838 
L 266.392079 250.343454 
L 271.450093 269.363092 
L 276.508106 269.363092 
L 281.566119 247.89056 
L 286.624133 243.617121 
L 291.682146 217.490897 
L 296.74016 174.308595 
L 301.798173 154.135293 
L 306.856187 155.686844 
L 311.9142 154.615226 
L 316.972214 148.837483 
L 322.030227 142.653693 
L 327.088241 158.257151 
L 332.146254 216.199526 
L 337.204268 239.577372 
L 342.262281 242.646616 
L 347.320295 269.363092 
L 352.378308 269.363092 
L 357.436321 245.818584 
L 362.494335 243.179754 
L 367.552348 221.758366 
L 372.610362 183.291511 
L 377.668375 157.932839 
L 382.726389 159.547899 
L 387.784402 163.769664 
L 392.842416 156.055471 
L 397.900429 153.377483 
L 402.958443 169.298078 
L 408.016456 219.787812 
L 413.07447 241.784209 
L 418.132483 245.939606 
L 423.190497 269.363092 
L 428.24851 269.363092 
L 433.306523 244.646509 
L 438.364537 239.478494 
L 443.42255 217.582816 
L 448.480564 178.307984 
L 453.538577 158.81181 
L 458.596591 157.706852 
L 463.654604 159.93737 
L 468.712618 157.285782 
L 473.770631 148.910597 
L 478.828645 158.508933 
L 483.886658 214.657826 
L 488.944672 236.318791 
L 494.002685 243.990658 
L 499.060699 269.363092 
L 504.118712 269.363092 
L 509.176725 248.559395 
L 514.234739 248.513929 
L 519.292752 234.129219 
L 524.350766 207.211599 
L 529.408779 186.817387 
L 534.466793 189.122358 
L 539.524806 190.110156 
L 544.58282 184.188987 
L 549.640833 182.370936 
L 554.698847 190.648174 
L 559.75686 228.954447 
L 564.814874 246.37509 
L 569.872887 251.79765 
L 574.930901 269.363092 
L 579.988914 269.363092 
L 585.046927 245.958163 
L 590.104941 238.528776 
L 595.162954 219.770173 
L 600.220968 184.144847 
L 605.278981 160.010385 
L 610.336995 159.118699 
L 615.395008 164.43668 
L 620.453022 156.73468 
L 625.511035 152.973858 
L 630.569049 163.015955 
L 635.627062 219.530233 
L 640.685076 236.264928 
L 645.743089 245.089174 
L 650.801103 269.363092 
L 655.859116 269.363092 
L 660.917129 246.299693 
L 665.975143 249.269694 
L 671.033156 226.160226 
L 676.09117 194.289084 
L 681.149183 168.031725 
L 686.207197 165.097884 
L 691.26521 167.332019 
L 696.323224 162.585159 
L 701.381237 159.053714 
L 706.439251 173.462511 
L 711.497264 219.834855 
L 716.555278 242.950992 
L 721.613291 243.900637 
L 726.671305 269.363092 
L 731.729318 269.363092 
L 736.787331 246.647821 
L 741.845345 253.401606 
L 746.903358 228.193411 
L 751.961372 193.968254 
L 757.019385 168.780067 
L 762.077399 167.568663 
L 767.135412 168.070969 
L 772.193426 160.710106 
L 777.251439 157.358434 
L 782.309453 174.325731 
L 787.367466 218.046154 
L 792.42548 246.79768 
L 797.483493 242.832374 
L 802.541507 269.363092 
L 802.541507 269.363092 
" clip-path="url(#pbed756318d)" style="fill: none; stroke: #9467bd; stroke-width: 2; stroke-linecap: square"/>
   </g>
   <g id="line2d_44">
    <path d="M 48.8975 269.363092 
L 53.955513 253.394686 
L 59.013527 211.477621 
L 64.07154 172.887307 
L 69.129554 145.607948 
L 74.187567 83.730376 
L 79.245581 69.758021 
L 84.303594 54.454965 
L 89.361608 58.447067 
L 94.419621 87.722477 
L 99.477635 126.978141 
L 104.535648 177.544759 
L 109.593662 236.09558 
L 114.651675 260.713538 
L 119.709689 269.363092 
L 124.767702 269.363092 
L 129.825715 251.398635 
L 134.883729 221.457875 
L 139.941742 210.812271 
L 144.999756 187.525013 
L 150.057769 114.336487 
L 155.115783 88.387828 
L 160.173796 45.140062 
L 165.23181 85.726427 
L 170.289823 79.072924 
L 175.347837 115.001837 
L 180.40585 176.879409 
L 185.463864 221.457875 
L 190.521877 258.717488 
L 195.579891 269.363092 
L 200.637904 269.363092 
L 205.695917 254.725386 
L 210.753931 209.48157 
L 215.811944 162.907054 
L 220.869958 153.592151 
L 225.927971 81.734325 
L 230.985985 61.773818 
L 236.043998 47.136113 
L 241.102012 69.092671 
L 246.160025 87.057127 
L 251.218039 120.324639 
L 256.276052 213.473672 
L 261.334066 234.099529 
L 266.392079 260.048188 
L 271.450093 269.363092 
L 276.508106 269.363092 
L 281.566119 255.390737 
L 286.624133 224.784626 
L 291.682146 156.918902 
L 296.74016 107.682984 
L 301.798173 79.738275 
L 306.856187 60.443118 
L 311.9142 73.750122 
L 316.972214 126.312791 
L 322.030227 156.918902 
L 327.088241 159.580303 
L 332.146254 196.839916 
L 337.204268 226.115326 
L 342.262281 262.709589 
L 347.320295 269.363092 
L 352.378308 269.363092 
L 357.436321 252.729336 
L 362.494335 212.808322 
L 367.552348 162.241704 
L 372.610362 118.328588 
L 377.668375 79.738275 
L 382.726389 65.100569 
L 392.842416 136.958395 
L 397.900429 126.312791 
L 402.958443 150.93075 
L 408.016456 237.42628 
L 413.07447 258.052138 
L 418.132483 266.70169 
L 423.190497 269.363092 
L 428.24851 269.363092 
L 433.306523 260.048188 
L 438.364537 234.099529 
L 443.42255 172.221957 
L 448.480564 118.993938 
L 453.538577 133.631643 
L 458.596591 55.120316 
L 463.654604 47.801463 
L 468.712618 63.104519 
L 473.770631 95.70668 
L 478.828645 157.584252 
L 483.886658 203.493418 
L 488.944672 227.446027 
L 494.002685 260.048188 
L 499.060699 269.363092 
L 504.118712 269.363092 
L 509.176725 268.697741 
L 514.234739 266.03634 
L 519.292752 254.725386 
L 524.350766 250.067935 
L 529.408779 223.453925 
L 534.466793 235.43023 
L 539.524806 239.422331 
L 544.58282 240.753032 
L 549.640833 244.079783 
L 554.698847 254.060036 
L 559.75686 204.824119 
L 564.814874 235.43023 
L 569.872887 263.37494 
L 574.930901 269.363092 
L 579.988914 268.697741 
L 585.046927 257.386787 
L 590.104941 238.09163 
L 595.162954 212.142971 
L 600.220968 144.277247 
L 605.278981 156.918902 
L 610.336995 119.659288 
L 615.395008 59.777767 
L 620.453022 59.777767 
L 625.511035 119.659288 
L 630.569049 197.505266 
L 635.627062 237.42628 
L 640.685076 240.753032 
L 645.743089 261.378889 
L 650.801103 269.363092 
L 655.859116 268.697741 
L 660.917129 248.071884 
L 665.975143 218.796474 
L 671.033156 172.221957 
L 676.09117 137.623745 
L 681.149183 109.013685 
L 686.207197 141.615846 
L 691.26521 171.556607 
L 696.323224 245.410483 
L 701.381237 202.162718 
L 706.439251 249.402585 
L 711.497264 249.402585 
L 716.555278 254.725386 
L 721.613291 263.37494 
L 726.671305 269.363092 
L 731.729318 268.697741 
L 736.787331 263.37494 
L 741.845345 262.709589 
L 746.903358 243.414432 
L 751.961372 216.800423 
L 757.019385 195.509215 
L 762.077399 245.410483 
L 767.135412 204.824119 
L 772.193426 174.883358 
L 777.251439 232.768829 
L 782.309453 238.09163 
L 787.367466 232.103478 
L 792.42548 248.737234 
L 797.483493 262.709589 
L 802.541507 269.363092 
L 802.541507 269.363092 
" clip-path="url(#pbed756318d)" style="fill: none; stroke: #8c564b; stroke-width: 2; stroke-linecap: square"/>
   </g>
   <g id="patch_3">
    <path d="M 48.8975 269.363092 
L 48.8975 36.177795 
" style="fill: none; stroke: #000000; stroke-linejoin: miter; stroke-linecap: square"/>
   </g>
   <g id="patch_4">
    <path d="M 807.59952 269.363092 
L 807.59952 36.177795 
" style="fill: none; stroke: #000000; stroke-linejoin: miter; stroke-linecap: square"/>
   </g>
   <g id="patch_5">
    <path d="M 48.8975 269.363092 
L 807.59952 269.363092 
" style="fill: none; stroke: #000000; stroke-linejoin: miter; stroke-linecap: square"/>
   </g>
   <g id="patch_6">
    <path d="M 48.8975 36.177795 
L 807.59952 36.177795 
" style="fill: none; stroke: #000000; stroke-linejoin: miter; stroke-linecap: square"/>
   </g>
   <g id="legend_1">
    <g id="patch_7">
     <path d="M 97.106004 28.41375 
L 746.090379 28.41375 
Q 748.490379 28.41375 748.490379 26.01375 
L 748.490379 9.6 
Q 748.490379 7.2 746.090379 7.2 
L 97.106004 7.2 
Q 94.706004 7.2 94.706004 9.6 
L 94.706004 26.01375 
Q 94.706004 28.41375 97.106004 28.41375 
z
" style="fill: #ffffff; opacity: 0.8; stroke: #cccccc; stroke-linejoin: miter"/>
    </g>
    <g id="line2d_45">
     <path d="M 99.506004 16.918125 
L 111.506004 16.918125 
L 123.506004 16.918125 
" style="fill: none; stroke: #1f77b4; stroke-width: 2; stroke-linecap: square"/>
    </g>
    <g id="text_22">
     <!-- LSTM -->
     <g transform="translate(133.106004 21.118125) scale(0.12 -0.12)">
      <defs>
       <path id="DejaVuSans-54" d="M -19 4666 
L 3928 4666 
L 3928 4134 
L 2272 4134 
L 2272 0 
L 1638 0 
L 1638 4134 
L -19 4134 
L -19 4666 
z
" transform="scale(0.015625)"/>
       <path id="DejaVuSans-4d" d="M 628 4666 
L 1569 4666 
L 2759 1491 
L 3956 4666 
L 4897 4666 
L 4897 0 
L 4281 0 
L 4281 4097 
L 3078 897 
L 2444 897 
L 1241 4097 
L 1241 0 
L 628 0 
L 628 4666 
z
" transform="scale(0.015625)"/>
      </defs>
      <use xlink:href="#DejaVuSans-4c"/>
      <use xlink:href="#DejaVuSans-53" x="55.712891"/>
      <use xlink:href="#DejaVuSans-54" x="119.189453"/>
      <use xlink:href="#DejaVuSans-4d" x="180.273438"/>
     </g>
    </g>
    <g id="line2d_46">
     <path d="M 189.093504 16.918125 
L 201.093504 16.918125 
L 213.093504 16.918125 
" style="fill: none; stroke: #ff7f0e; stroke-width: 2; stroke-linecap: square"/>
    </g>
    <g id="text_23">
     <!-- CNN-LSTM -->
     <g transform="translate(222.693504 21.118125) scale(0.12 -0.12)">
      <defs>
       <path id="DejaVuSans-43" d="M 4122 4306 
L 4122 3641 
Q 3803 3938 3442 4084 
Q 3081 4231 2675 4231 
Q 1875 4231 1450 3742 
Q 1025 3253 1025 2328 
Q 1025 1406 1450 917 
Q 1875 428 2675 428 
Q 3081 428 3442 575 
Q 3803 722 4122 1019 
L 4122 359 
Q 3791 134 3420 21 
Q 3050 -91 2638 -91 
Q 1578 -91 968 557 
Q 359 1206 359 2328 
Q 359 3453 968 4101 
Q 1578 4750 2638 4750 
Q 3056 4750 3426 4639 
Q 3797 4528 4122 4306 
z
" transform="scale(0.015625)"/>
       <path id="DejaVuSans-4e" d="M 628 4666 
L 1478 4666 
L 3547 763 
L 3547 4666 
L 4159 4666 
L 4159 0 
L 3309 0 
L 1241 3903 
L 1241 0 
L 628 0 
L 628 4666 
z
" transform="scale(0.015625)"/>
       <path id="DejaVuSans-2d" d="M 313 2009 
L 1997 2009 
L 1997 1497 
L 313 1497 
L 313 2009 
z
" transform="scale(0.015625)"/>
      </defs>
      <use xlink:href="#DejaVuSans-43"/>
      <use xlink:href="#DejaVuSans-4e" x="69.824219"/>
      <use xlink:href="#DejaVuSans-4e" x="144.628906"/>
      <use xlink:href="#DejaVuSans-2d" x="219.433594"/>
      <use xlink:href="#DejaVuSans-4c" x="255.517578"/>
      <use xlink:href="#DejaVuSans-53" x="311.230469"/>
      <use xlink:href="#DejaVuSans-54" x="374.707031"/>
      <use xlink:href="#DejaVuSans-4d" x="435.791016"/>
     </g>
    </g>
    <g id="line2d_47">
     <path d="M 309.344754 16.918125 
L 321.344754 16.918125 
L 333.344754 16.918125 
" style="fill: none; stroke: #2ca02c; stroke-width: 2; stroke-linecap: square"/>
    </g>
    <g id="text_24">
     <!-- Transformer -->
     <g transform="translate(342.944754 21.118125) scale(0.12 -0.12)">
      <defs>
       <path id="DejaVuSans-66" d="M 2375 4863 
L 2375 4384 
L 1825 4384 
Q 1516 4384 1395 4259 
Q 1275 4134 1275 3809 
L 1275 3500 
L 2222 3500 
L 2222 3053 
L 1275 3053 
L 1275 0 
L 697 0 
L 697 3053 
L 147 3053 
L 147 3500 
L 697 3500 
L 697 3744 
Q 697 4328 969 4595 
Q 1241 4863 1831 4863 
L 2375 4863 
z
" transform="scale(0.015625)"/>
       <path id="DejaVuSans-6d" d="M 3328 2828 
Q 3544 3216 3844 3400 
Q 4144 3584 4550 3584 
Q 5097 3584 5394 3201 
Q 5691 2819 5691 2113 
L 5691 0 
L 5113 0 
L 5113 2094 
Q 5113 2597 4934 2840 
Q 4756 3084 4391 3084 
Q 3944 3084 3684 2787 
Q 3425 2491 3425 1978 
L 3425 0 
L 2847 0 
L 2847 2094 
Q 2847 2600 2669 2842 
Q 2491 3084 2119 3084 
Q 1678 3084 1418 2786 
Q 1159 2488 1159 1978 
L 1159 0 
L 581 0 
L 581 3500 
L 1159 3500 
L 1159 2956 
Q 1356 3278 1631 3431 
Q 1906 3584 2284 3584 
Q 2666 3584 2933 3390 
Q 3200 3197 3328 2828 
z
" transform="scale(0.015625)"/>
      </defs>
      <use xlink:href="#DejaVuSans-54"/>
      <use xlink:href="#DejaVuSans-72" x="46.333984"/>
      <use xlink:href="#DejaVuSans-61" x="87.447266"/>
      <use xlink:href="#DejaVuSans-6e" x="148.726562"/>
      <use xlink:href="#DejaVuSans-73" x="212.105469"/>
      <use xlink:href="#DejaVuSans-66" x="264.205078"/>
      <use xlink:href="#DejaVuSans-6f" x="299.410156"/>
      <use xlink:href="#DejaVuSans-72" x="360.591797"/>
      <use xlink:href="#DejaVuSans-6d" x="399.955078"/>
      <use xlink:href="#DejaVuSans-65" x="497.367188"/>
      <use xlink:href="#DejaVuSans-72" x="558.890625"/>
     </g>
    </g>
    <g id="line2d_48">
     <path d="M 438.942879 16.918125 
L 450.942879 16.918125 
L 462.942879 16.918125 
" style="fill: none; stroke: #d62728; stroke-width: 2; stroke-linecap: square"/>
    </g>
    <g id="text_25">
     <!-- ANN -->
     <g transform="translate(472.542879 21.118125) scale(0.12 -0.12)">
      <defs>
       <path id="DejaVuSans-41" d="M 2188 4044 
L 1331 1722 
L 3047 1722 
L 2188 4044 
z
M 1831 4666 
L 2547 4666 
L 4325 0 
L 3669 0 
L 3244 1197 
L 1141 1197 
L 716 0 
L 50 0 
L 1831 4666 
z
" transform="scale(0.015625)"/>
      </defs>
      <use xlink:href="#DejaVuSans-41"/>
      <use xlink:href="#DejaVuSans-4e" x="68.408203"/>
      <use xlink:href="#DejaVuSans-4e" x="143.212891"/>
     </g>
    </g>
    <g id="line2d_49">
     <path d="M 522.706629 16.918125 
L 534.706629 16.918125 
L 546.706629 16.918125 
" style="fill: none; stroke: #9467bd; stroke-width: 2; stroke-linecap: square"/>
    </g>
    <g id="text_26">
     <!-- Proposed -->
     <g transform="translate(556.306629 21.118125) scale(0.12 -0.12)">
      <defs>
       <path id="DejaVuSans-70" d="M 1159 525 
L 1159 -1331 
L 581 -1331 
L 581 3500 
L 1159 3500 
L 1159 2969 
Q 1341 3281 1617 3432 
Q 1894 3584 2278 3584 
Q 2916 3584 3314 3078 
Q 3713 2572 3713 1747 
Q 3713 922 3314 415 
Q 2916 -91 2278 -91 
Q 1894 -91 1617 61 
Q 1341 213 1159 525 
z
M 3116 1747 
Q 3116 2381 2855 2742 
Q 2594 3103 2138 3103 
Q 1681 3103 1420 2742 
Q 1159 2381 1159 1747 
Q 1159 1113 1420 752 
Q 1681 391 2138 391 
Q 2594 391 2855 752 
Q 3116 1113 3116 1747 
z
" transform="scale(0.015625)"/>
      </defs>
      <use xlink:href="#DejaVuSans-50"/>
      <use xlink:href="#DejaVuSans-72" x="58.552734"/>
      <use xlink:href="#DejaVuSans-6f" x="97.416016"/>
      <use xlink:href="#DejaVuSans-70" x="158.597656"/>
      <use xlink:href="#DejaVuSans-6f" x="222.074219"/>
      <use xlink:href="#DejaVuSans-73" x="283.255859"/>
      <use xlink:href="#DejaVuSans-65" x="335.355469"/>
      <use xlink:href="#DejaVuSans-64" x="396.878906"/>
     </g>
    </g>
    <g id="line2d_50">
     <path d="M 635.551629 16.918125 
L 647.551629 16.918125 
L 659.551629 16.918125 
" style="fill: none; stroke: #8c564b; stroke-width: 2; stroke-linecap: square"/>
    </g>
    <g id="text_27">
     <!-- GroundTruth -->
     <g transform="translate(669.151629 21.118125) scale(0.12 -0.12)">
      <defs>
       <path id="DejaVuSans-47" d="M 3809 666 
L 3809 1919 
L 2778 1919 
L 2778 2438 
L 4434 2438 
L 4434 434 
Q 4069 175 3628 42 
Q 3188 -91 2688 -91 
Q 1594 -91 976 548 
Q 359 1188 359 2328 
Q 359 3472 976 4111 
Q 1594 4750 2688 4750 
Q 3144 4750 3555 4637 
Q 3966 4525 4313 4306 
L 4313 3634 
Q 3963 3931 3569 4081 
Q 3175 4231 2741 4231 
Q 1884 4231 1454 3753 
Q 1025 3275 1025 2328 
Q 1025 1384 1454 906 
Q 1884 428 2741 428 
Q 3075 428 3337 486 
Q 3600 544 3809 666 
z
" transform="scale(0.015625)"/>
      </defs>
      <use xlink:href="#DejaVuSans-47"/>
      <use xlink:href="#DejaVuSans-72" x="77.490234"/>
      <use xlink:href="#DejaVuSans-6f" x="116.353516"/>
      <use xlink:href="#DejaVuSans-75" x="177.535156"/>
      <use xlink:href="#DejaVuSans-6e" x="240.914062"/>
      <use xlink:href="#DejaVuSans-64" x="304.292969"/>
      <use xlink:href="#DejaVuSans-54" x="367.769531"/>
      <use xlink:href="#DejaVuSans-72" x="414.103516"/>
      <use xlink:href="#DejaVuSans-75" x="455.216797"/>
      <use xlink:href="#DejaVuSans-74" x="518.595703"/>
      <use xlink:href="#DejaVuSans-68" x="557.804688"/>
     </g>
    </g>
   </g>
  </g>
 </g>
 <defs>
  <clipPath id="pbed756318d">
   <rect x="48.8975" y="36.177795" width="758.70202" height="233.185297"/>
  </clipPath>
 </defs>
</svg>
